<svg width="343" height="44" viewBox="0 0 343 44" fill="none" xmlns="http://www.w3.org/2000/svg">
<rect width="343" height="44" rx="4" fill="black"/>
<path d="M118 29.7773C117.168 29.7773 116.389 29.623 115.662 29.3145C114.939 29.002 114.303 28.5703 113.752 28.0195C113.201 27.4688 112.771 26.832 112.463 26.1094C112.154 25.3828 112 24.6055 112 23.7773C112 22.9492 112.154 22.1738 112.463 21.4512C112.775 20.7246 113.205 20.0859 113.752 19.5352C114.303 18.9844 114.939 18.5547 115.662 18.2461C116.389 17.9336 117.168 17.7773 118 17.7773V19.2949C117.379 19.2949 116.797 19.4121 116.254 19.6465C115.715 19.877 115.24 20.1973 114.83 20.6074C114.42 21.0176 114.098 21.4941 113.863 22.0371C113.633 22.5762 113.518 23.1562 113.518 23.7773C113.518 24.3984 113.633 24.9805 113.863 25.5234C114.094 26.0625 114.414 26.5371 114.824 26.9473C115.234 27.3574 115.711 27.6797 116.254 27.9141C116.797 28.1445 117.379 28.2598 118 28.2598C118.621 28.2598 119.201 28.1445 119.74 27.9141C120.283 27.6797 120.76 27.3574 121.17 26.9473C121.584 26.5371 121.906 26.0605 122.137 25.5176C122.367 24.9746 122.482 24.3945 122.482 23.7773H124C124 24.6055 123.844 25.3828 123.531 26.1094C123.223 26.832 122.793 27.4688 122.242 28.0195C121.691 28.5703 121.053 29.002 120.326 29.3145C119.604 29.623 118.828 29.7773 118 29.7773ZM117.66 22.2891V15L121.328 18.6445L117.66 22.2891Z" fill="white"/>
<path d="M134.864 27V22.84H136.176C137.184 22.84 137.728 23.096 138.128 23.816L139.984 27H142.064L140.24 23.912C139.856 23.24 139.424 22.84 138.784 22.648C140.464 22.456 141.696 21.4 141.696 19.608C141.696 17.4 140.064 16.28 137.888 16.28H133.056V27H134.864ZM137.712 17.88C138.848 17.88 139.824 18.296 139.824 19.656C139.824 20.952 138.848 21.368 137.712 21.368H134.864V17.88H137.712ZM144.811 27.16C146.443 27.16 147.195 25.944 147.435 24.92V25.496C147.435 26.616 148.091 27 148.923 27H150.027V25.464H149.531C149.243 25.464 149.115 25.352 149.115 25V22.072C149.115 20.152 148.027 19.048 146.091 19.048C144.363 19.048 143.147 19.944 142.539 20.776L143.611 22.056C144.059 21.24 144.875 20.632 145.915 20.632C146.987 20.632 147.339 21.16 147.403 21.944L144.795 23.048C143.531 23.544 142.763 24.216 142.763 25.32C142.763 26.44 143.531 27.16 144.811 27.16ZM144.491 25.048C144.491 24.648 144.763 24.376 145.435 24.072L147.435 23.176V24.008C147.435 25.064 146.635 25.768 145.451 25.768C144.795 25.768 144.491 25.496 144.491 25.048ZM153.189 27V22.632C153.189 21.352 153.637 20.504 154.949 20.504C156.149 20.504 156.469 21.16 156.469 22.12V27H158.277V21.576C158.277 19.96 157.349 19.048 155.829 19.048C154.277 19.048 153.477 20.104 153.189 21.336V19.208H151.397V27H153.189ZM162.789 27.176C164.341 27.176 164.997 26.136 165.253 24.936V27H167.045V16.28H165.253V21.304C164.997 20.088 164.309 19.048 162.757 19.048C160.869 19.048 159.653 20.6 159.653 23.112C159.653 25.624 160.869 27.176 162.789 27.176ZM161.493 23.112C161.493 21.368 162.341 20.504 163.461 20.504C164.725 20.504 165.253 21.352 165.253 22.632V23.608C165.253 24.888 164.725 25.72 163.477 25.72C162.341 25.72 161.493 24.872 161.493 23.112ZM172.208 27.16C174.48 27.16 176.016 25.528 176.016 23.112C176.016 20.68 174.48 19.048 172.208 19.048C169.968 19.048 168.432 20.68 168.432 23.112C168.432 25.528 169.968 27.16 172.208 27.16ZM172.224 25.672C171.072 25.672 170.272 24.904 170.272 23.112C170.272 21.304 171.072 20.536 172.224 20.536C173.392 20.536 174.192 21.304 174.192 23.112C174.192 24.904 173.392 25.672 172.224 25.672ZM179.345 27V22.632C179.345 21.352 179.793 20.504 180.849 20.504C181.905 20.504 182.353 21.048 182.353 22.12V27H184.145V22.632C184.145 21.352 184.593 20.504 185.649 20.504C186.705 20.504 187.153 21.048 187.153 22.12V27H188.945V21.576C188.945 19.96 188.161 19.048 186.673 19.048C185.185 19.048 184.417 20.12 184.145 21.352C184.065 19.88 183.297 19.048 181.873 19.048C180.401 19.048 179.633 20.104 179.345 21.336V19.208H177.553V27H179.345ZM192.58 18.104V16.28H190.788V18.104H192.58ZM192.58 27V19.208H190.788V27H192.58ZM200.907 27V25.48H198.027L196.011 25.56L197.243 24.392L200.747 20.6V19.208H194.315V20.744H196.859L198.683 20.648L197.531 21.704L194.027 25.608V27H200.907ZM205.244 27.16C206.972 27.16 208.028 26.376 208.62 25.48L207.516 24.328C207.228 24.984 206.62 25.688 205.26 25.688C204.028 25.688 203.212 24.936 203.116 23.544H208.684C208.716 23.384 208.748 23.048 208.748 22.76C208.748 20.6 207.452 19.048 205.116 19.048C202.924 19.048 201.404 20.664 201.404 23.112C201.404 25.544 202.924 27.16 205.244 27.16ZM205.116 20.488C206.3 20.488 207.004 21.16 207.132 22.392H203.132C203.276 21.128 204.012 20.488 205.116 20.488Z" fill="white"/>
</svg>
